<?xml version="1.0" encoding="UTF-8" standalone="no"?>
<svg
   xmlns:dc="http://purl.org/dc/elements/1.1/"
   xmlns:cc="http://creativecommons.org/ns#"
   xmlns:rdf="http://www.w3.org/1999/02/22-rdf-syntax-ns#"
   xmlns:svg="http://www.w3.org/2000/svg"
   xmlns="http://www.w3.org/2000/svg"
   xmlns:xlink="http://www.w3.org/1999/xlink"
   xmlns:sodipodi="http://sodipodi.sourceforge.net/DTD/sodipodi-0.dtd"
   xmlns:inkscape="http://www.inkscape.org/namespaces/inkscape"
   inkscape:export-ydpi="96"
   inkscape:export-xdpi="96"
   inkscape:export-filename="C:\Users\EmilePrillerUpstream\Documents\KeePassUpdater\icon.png"
   width="1000.0001"
   height="1000.0001"
   viewBox="0 0 264.58332 264.58332"
   version="1.1"
   id="svg8"
   inkscape:version="1.0 (4035a4fb49, 2020-05-01)"
   sodipodi:docname="icon.svg">
  <defs
     id="defs2">
    <linearGradient
       inkscape:collect="always"
       id="linearGradient943">
      <stop
         style="stop-color:#858585;stop-opacity:1"
         offset="0"
         id="stop939" />
      <stop
         id="stop947"
         offset="0.48077688"
         style="stop-color:#6a6a6a;stop-opacity:1" />
      <stop
         style="stop-color:#858585;stop-opacity:1"
         offset="1"
         id="stop941" />
    </linearGradient>
    <linearGradient
       inkscape:collect="always"
       xlink:href="#linearGradient943"
       id="linearGradient945"
       x1="-271.34857"
       y1="-338.62949"
       x2="-438.12476"
       y2="-337.29315"
       gradientUnits="userSpaceOnUse" />
    <linearGradient
       inkscape:collect="always"
       xlink:href="#linearGradient943"
       id="linearGradient957"
       gradientUnits="userSpaceOnUse"
       x1="-271.34857"
       y1="-338.62949"
       x2="-438.12476"
       y2="-337.29315"
       gradientTransform="matrix(1.2496261,0,0,1.2496261,-447.31758,-236.10337)" />
  </defs>
  <sodipodi:namedview
     units="px"
     fit-margin-bottom="0"
     fit-margin-right="0"
     fit-margin-left="0"
     fit-margin-top="0"
     inkscape:snap-global="false"
     id="base"
     pagecolor="#ffffff"
     bordercolor="#666666"
     borderopacity="1.0"
     inkscape:pageopacity="0.0"
     inkscape:pageshadow="2"
     inkscape:zoom="0.49497475"
     inkscape:cx="51.002749"
     inkscape:cy="566.21356"
     inkscape:document-units="mm"
     inkscape:current-layer="layer1"
     inkscape:document-rotation="0"
     showgrid="false"
     showborder="true"
     inkscape:window-width="2560"
     inkscape:window-height="1377"
     inkscape:window-x="-8"
     inkscape:window-y="-8"
     inkscape:window-maximized="1" />
  <metadata
     id="metadata5">
    <rdf:RDF>
      <cc:Work
         rdf:about="">
        <dc:format>image/svg+xml</dc:format>
        <dc:type
           rdf:resource="http://purl.org/dc/dcmitype/StillImage" />
        <dc:title />
      </cc:Work>
    </rdf:RDF>
  </metadata>
  <g
     transform="translate(1020.8331,845.0246)"
     inkscape:label="Layer 1"
     inkscape:groupmode="layer"
     id="layer1">
    <path
       id="path949"
       style="fill:#9f9f9f;fill-opacity:1;stroke:none;stroke-width:6.60187;stroke-miterlimit:4;stroke-dasharray:none;stroke-opacity:1"
       d="m -856.08263,-733.97402 c -0.97507,0.005 -1.517,0.0193 -1.517,0.0193 l -71.69111,2.00119 c 0,0 -42.93034,-0.68429 -58.01928,16.33838 -10.39583,11.72813 -10.0034,39.34701 -10.0034,39.34701 0,0 -3.61818,51.17613 10.0034,70.69051 4.97423,7.12614 8.62549,10.32464 11.45275,11.79315 -1.95329,-1.36642 -3.64795,-3.11173 -4.78381,-5.12421 -11.69726,-20.72514 -10.0034,-70.69051 -10.0034,-70.69051 0,0 -0.39243,-27.61887 10.0034,-39.34699 15.08894,-17.0227 58.01928,-16.3384 58.01928,-16.3384 l 71.69111,-2.00119 c 0,0 36.74073,-3.2477 48.34916,9.00345 1.22011,1.28765 2.3005,2.72772 3.26872,4.27253 -2.04385,-3.75418 -5.07757,-7.41906 -9.93766,-10.94147 -11.95745,-8.66631 -40.00659,-9.05991 -46.83216,-9.0228 z" />
    <path
       style="fill:url(#linearGradient957);fill-opacity:1;stroke:none;stroke-width:6.6126;stroke-miterlimit:4;stroke-dasharray:none;stroke-opacity:1"
       d="m -981.45024,-599.47998 c -11.71625,-20.75878 -10.0196,-70.80524 -10.0196,-70.80524 0,0 -0.3931,-27.6633 10.01961,-39.41046 15.11343,-17.05031 58.11373,-16.36537 58.11373,-16.36537 l 71.8072,-2.00391 c 0,0 36.80084,-3.25339 48.42811,9.01764 7.10634,7.49978 9.58007,20.06978 11.68955,29.39085 2.95446,13.05482 10.26063,68.68143 -11.68955,90.17649 -14.40654,14.10783 -73.99966,18.97802 -81.82681,19.03727 -8.19229,0.062 -60.53327,-1.79705 -87.50459,-11.68956 -3.64025,-1.33516 -7.11184,-3.97102 -9.01765,-7.34771 z"
       id="path937"
       sodipodi:nodetypes="scsccssssss" />
    <path
       d="m -886.45367,-699.46997 a 21.775202,21.775202 0 0 0 -21.77528,21.77527 21.775202,21.775202 0 0 0 10.22261,18.45822 l -5.93074,49.65858 9.65849,0.0213 v 0.0354 l 7.82427,-0.0181 7.82492,0.0181 v -0.0354 l 9.65848,-0.0213 -5.93073,-49.65858 a 21.775202,21.775202 0 0 0 10.22325,-18.45822 21.775202,21.775202 0 0 0 -21.77527,-21.77527 z"
       style="fill:#3c3c3c;fill-opacity:1;stroke-width:0.158777"
       id="path849" />
    <path
       id="path866"
       style="fill:#525252;fill-opacity:1;stroke:none;stroke-width:6.60187;stroke-miterlimit:4;stroke-dasharray:none;stroke-opacity:1"
       d="m -886.45367,-699.46997 c -3.68323,3e-5 -7.30625,0.93435 -10.53015,2.71554 0,0 1.17194,0.14323 1.75943,0.2005 2.90388,0.28309 5.85238,0.1927 8.7243,0.70726 2.29007,0.4103 4.56839,1.00103 6.71987,1.88644 1.12241,0.46191 2.71139,1.29689 3.18296,1.76845 0.47156,0.47157 2.78902,3.08281 3.89021,4.83343 1.02015,1.6218 1.96364,3.34113 2.47572,5.18739 0.54864,1.97806 0.83847,4.09241 0.58926,6.12996 -0.25801,2.10961 -1.10944,4.14386 -2.12176,6.01262 -1.10811,2.0456 -2.71095,3.79091 -4.24416,5.54068 -1.0255,1.17035 -3.30094,3.30096 -3.30094,3.30096 l 1.17918,8.48831 5.65867,39.84732 -17.6291,3.32029 3.64586,-0.009 7.82492,0.0181 v -0.0354 l 9.65848,-0.0212 -5.93073,-49.65859 c 6.36025,-3.98049 10.22319,-10.95507 10.22325,-18.45822 4e-5,-12.02617 -9.7491,-21.77532 -21.77527,-21.77528 z"
       sodipodi:nodetypes="scaaasaaaaacccccccccss" />
    <path
       id="path964"
       style="fill:#797979;fill-opacity:1;stroke:none;stroke-width:5.64951;stroke-miterlimit:4;stroke-dasharray:none;stroke-opacity:1"
       d="m -934.31627,-828.12102 c -7.41916,7.78616 -8.51827,13.54245 -9.87278,18.94788 -1.35451,5.40543 -1.74909,11.04362 -1.79734,22.58971 l -0.23579,56.40927 c 0,5.04446 20.67152,4.28442 20.67152,-0.43907 0,0 0.23915,-23.91646 0.23915,-33.01972 0,-9.21903 -0.55493,-30.3117 0.3925,-37.73588 0.59742,-4.6816 2.73045,-12.30268 8.34888,-17.97349 5.61844,-5.67081 13.48818,-10.3438 24.80066,-10.17786 9.53909,0.13993 17.58592,4.84736 22.37438,13.25875 4.78845,8.41139 5.64346,22.17464 5.64346,42.68222 v 40.98687 c 0,5.4859 22.62209,5.10585 22.62209,-0.38006 v -53.09491 c 0,-19.53446 -4.2828,-34.26935 -11.28516,-42.32731 -7.00235,-8.05797 -20.55291,-16.62995 -40.66246,-16.62995 -17.1881,0 -33.09436,8.42367 -41.23911,16.90355 z"
       sodipodi:nodetypes="cssccsszszssssscc" />
    <path
       id="path970"
       style="fill:#525252;fill-opacity:1;stroke:none;stroke-width:6.60187;stroke-miterlimit:4;stroke-dasharray:none;stroke-opacity:1"
       d="m -925.53979,-731.84452 c -10e-4,0.10168 -0.0112,1.23141 -0.0112,1.23141 0,4.72349 -20.67153,5.48351 -20.67153,0.43905 l 0.004,-0.68712 c -1.47854,1.05467 -1.33496,2.0884 -1.11987,2.49168 0.33345,0.62521 0.83325,1.2089 6.00166,2.29261 5.16841,1.08369 13.71315,-0.62515 15.50541,-1.41709 1.79228,-0.79193 1.75072,-3.00124 0.5003,-4.20999 -0.0498,-0.0482 -0.12401,-0.0944 -0.20888,-0.14055 z"
       sodipodi:nodetypes="ccccssssc" />
    <path
       id="path975"
       style="fill:#525252;fill-opacity:1;stroke:none;stroke-width:6.60187;stroke-miterlimit:4;stroke-dasharray:none;stroke-opacity:1"
       d="m -863.75152,-733.38411 c -1.51802,1.237 -1.38061,1.8278 -0.32107,2.87222 2.0631,2.03361 4.33231,2.29893 6.36592,2.38738 1.01681,0.0442 4.68724,0.17549 8.19083,-0.0418 3.5036,-0.21726 6.84036,-0.78304 7.60665,-1.54937 1.24372,-1.24378 2.25415,-1.84706 0.77947,-3.33768 v 0.0812 c 0,5.48591 -22.6218,5.86564 -22.6218,0.37974 z"
       sodipodi:nodetypes="csssscssc" />
    <path
       id="path876"
       style="fill:#008000;stroke-width:0.0576041"
       d="m -949.42202,-756.97607 -48.21219,59.32172 h 23.21511 V -587.143 h 24.99708 24.99701 v -110.51135 h 23.21607 z" />
  </g>
</svg>
